<svg width="16" height="18" viewBox="0 0 16 18" fill="none" xmlns="http://www.w3.org/2000/svg">
<path d="M7.3698 17.73C6.6498 17.01 0.799805 10.98 0.799805 7.2C0.799805 3.24 4.0398 0 7.9998 0C11.9598 0 15.1998 3.24 15.1998 7.2C15.1998 10.98 9.3498 17.01 8.6298 17.73C8.2698 18.09 7.7298 18.09 7.3698 17.73ZM7.9998 1.8C5.0298 1.8 2.5998 4.23 2.5998 7.2C2.5998 9.45 6.0198 13.68 7.9998 15.75C9.9798 13.68 13.3998 9.45 13.3998 7.2C13.3998 4.23 10.9698 1.8 7.9998 1.8Z" fill="#18A4E1"/>
<path d="M7.9998 9C8.99392 9 9.7998 8.19411 9.7998 7.2C9.7998 6.20589 8.99392 5.4 7.9998 5.4C7.00569 5.4 6.1998 6.20589 6.1998 7.2C6.1998 8.19411 7.00569 9 7.9998 9Z" fill="#18A4E1"/>
</svg>
